<svg xmlns="http://www.w3.org/2000/svg" viewBox="0 0 895 172.22"><defs><style>.cls-1{fill:#fff;}</style></defs><g id="Layer_2" data-name="Layer 2"><g id="Layer_1-2" data-name="Layer 1"><path class="cls-1" d="M179.27,140H42.63a10.57,10.57,0,0,1-10.55-10.56V42.76A10.57,10.57,0,0,1,42.63,32.2H179.27a10.57,10.57,0,0,1,10.55,10.56v86.71A10.57,10.57,0,0,1,179.27,140ZM52.54,119.56H169.35V52.67H52.54Z"/><path class="cls-1" d="M221.89,63.3H201.43V21.69a1.22,1.22,0,0,0-1.22-1.22H158.59V0h41.62a21.71,21.71,0,0,1,21.68,21.69Z"/><path class="cls-1" d="M20.47,63.3H0V21.69A21.71,21.71,0,0,1,21.69,0H63.3V20.47H21.69a1.21,1.21,0,0,0-1.22,1.22Z"/><path class="cls-1" d="M63.3,172.22H21.69A21.71,21.71,0,0,1,0,150.54V108.92H20.47v41.62a1.22,1.22,0,0,0,1.22,1.22H63.3Z"/><path class="cls-1" d="M200.21,172.22H158.59V151.76h41.62a1.22,1.22,0,0,0,1.22-1.22V108.92h20.46v41.62A21.7,21.7,0,0,1,200.21,172.22Z"/><path class="cls-1" d="M102.37,81.72,72.17,64.28a5.08,5.08,0,0,0-7.61,4.4v34.87a5.07,5.07,0,0,0,7.61,4.39l30.2-17.43A5.08,5.08,0,0,0,102.37,81.72Z"/><circle class="cls-1" cx="136.46" cy="86.11" r="22.71"/><rect class="cls-1" x="836.68" y="103.33" width="58.32" height="15.18" rx="3.2"/><path class="cls-1" d="M400.35,23.7a13.31,13.31,0,0,1,7.18-2,15.53,15.53,0,0,1,10.21,3.78,11.63,11.63,0,0,1,4.54,9.27A13.33,13.33,0,0,1,421,40.43l-51.07,107.8a14.93,14.93,0,0,1-6.24,6.72,18.63,18.63,0,0,1-18.15,0,14.93,14.93,0,0,1-6.24-6.72L288.19,40.43A12.12,12.12,0,0,1,286.87,35a11.67,11.67,0,0,1,4.73-9.46,16.52,16.52,0,0,1,10.59-3.78,13.83,13.83,0,0,1,7.28,2,12.33,12.33,0,0,1,5,5.95L355,118.16l40.47-88.51A12.5,12.5,0,0,1,400.35,23.7Z"/><path class="cls-1" d="M894.67,82.8q0,6.95-8.16,7h-41a7.37,7.37,0,0,1-5.45-2,7,7,0,0,1-2-5.13,10.23,10.23,0,0,1,3.2-7.27l24.25-25.69q8.16-8.61,8.16-15.88c0-3-.85-5.31-2.54-6.89s-4.15-2.37-7.38-2.37A20.4,20.4,0,0,0,856,25.91a61.44,61.44,0,0,0-8.16,4.19,28.14,28.14,0,0,1-2.87,1.54,5.54,5.54,0,0,1-2.31.44,4.87,4.87,0,0,1-4-2.14,8,8,0,0,1-1.65-5,7.51,7.51,0,0,1,.71-3.48A7,7,0,0,1,840.09,19a41.5,41.5,0,0,1,11.41-5.79,40.84,40.84,0,0,1,13-2.14,33.37,33.37,0,0,1,13.73,2.64,20.55,20.55,0,0,1,9.09,7.55,20.28,20.28,0,0,1,3.2,11.31A28,28,0,0,1,887.67,45a55.49,55.49,0,0,1-9.43,12.79L860.93,76h25.58Q894.67,76,894.67,82.8Z"/><path class="cls-1" d="M810.79,21.52H717.33a2.64,2.64,0,0,0-1.71,4.63l.06.05a43,43,0,0,1,11.69,17.57,2.65,2.65,0,0,0,2.48,1.77h20.79v101.1q0,6.62,4.07,10.59a14.67,14.67,0,0,0,10.69,4q6.81,0,10.78-4t4-10.59V45.54h30.64q14,0,14-12.1Q824.78,21.53,810.79,21.52Z"/><path class="cls-1" d="M702.87,32.51q-12.11-11-33.85-11h-61.8A14,14,0,0,0,592.41,35.6v83.21c0,5.65-4.12,10.71-9.74,11.26a10.85,10.85,0,0,1-11.92-10.78V75.59c0-22.58-18.48-41.82-41.06-41.44A40.41,40.41,0,0,0,490,74.52v44.29c0,5.65-4.12,10.71-9.75,11.26a10.84,10.84,0,0,1-11.91-10.78V36.93c0-8.09-6.24-15.14-14.32-15.38a14.77,14.77,0,0,0-15.23,14.77v81.9c0,22.59,18.48,41.82,41.07,41.45a40.43,40.43,0,0,0,39.69-40.38V75c0-5.65,4.12-10.71,9.75-11.25a10.83,10.83,0,0,1,11.9,10.77v43.7c0,22.59,18.49,41.82,41.07,41.45A40.43,40.43,0,0,0,622,119.29V44.05h43.28q22.13,0,22.13,19.29c0,12.73-7.38,19.77-22.13,19.77H648.41a11.16,11.16,0,0,0-11.16,11.16h0a11.16,11.16,0,0,0,11.16,11.16H669q21.75,0,33.85-11C710.94,87.15,715,76.26,715,63.15S710.94,39.82,702.87,32.51Z"/></g></g></svg>